<mxfile host="app.diagrams.net" agent="Mozilla/5.0 (Windows NT 10.0; Win64; x64) AppleWebKit/537.36 (KHTML, like Gecko) Chrome/135.0.0.0 Safari/537.36" version="26.2.12">
  <diagram name="Page-1" id="0783ab3e-0a74-02c8-0abd-f7b4e66b4bec">
    <mxGraphModel dx="874" dy="439" grid="1" gridSize="10" guides="1" tooltips="1" connect="1" arrows="1" fold="1" page="1" pageScale="1" pageWidth="850" pageHeight="1100" background="none" math="0" shadow="0">
      <root>
        <mxCell id="0" />
        <mxCell id="1" parent="0" />
        <mxCell id="QMHVdDGdQbJeDwEbL7cG-1" value="Tourists" style="text;html=1;align=center;verticalAlign=middle;whiteSpace=wrap;rounded=0;" vertex="1" parent="1">
          <mxGeometry x="365" y="200" width="60" height="30" as="geometry" />
        </mxCell>
        <mxCell id="QMHVdDGdQbJeDwEbL7cG-2" value="" style="ellipse;fillColor=strokeColor;html=1;" vertex="1" parent="1">
          <mxGeometry x="385" y="240" width="20" height="20" as="geometry" />
        </mxCell>
        <mxCell id="QMHVdDGdQbJeDwEbL7cG-3" value="Log in" style="rounded=1;whiteSpace=wrap;html=1;" vertex="1" parent="1">
          <mxGeometry x="355" y="280" width="80" height="40" as="geometry" />
        </mxCell>
        <mxCell id="QMHVdDGdQbJeDwEbL7cG-5" value="" style="endArrow=open;startArrow=none;endFill=0;startFill=0;endSize=8;html=1;verticalAlign=bottom;labelBackgroundColor=none;strokeWidth=1;rounded=0;exitX=0.5;exitY=1;exitDx=0;exitDy=0;entryX=0.5;entryY=0;entryDx=0;entryDy=0;" edge="1" parent="1" source="QMHVdDGdQbJeDwEbL7cG-2" target="QMHVdDGdQbJeDwEbL7cG-3">
          <mxGeometry width="160" relative="1" as="geometry">
            <mxPoint x="350" y="390" as="sourcePoint" />
            <mxPoint x="510" y="390" as="targetPoint" />
          </mxGeometry>
        </mxCell>
        <mxCell id="QMHVdDGdQbJeDwEbL7cG-8" value="" style="endArrow=open;startArrow=none;endFill=0;startFill=0;endSize=8;html=1;verticalAlign=bottom;labelBackgroundColor=none;strokeWidth=1;rounded=0;exitX=0.5;exitY=1;exitDx=0;exitDy=0;entryX=0.5;entryY=0;entryDx=0;entryDy=0;" edge="1" parent="1" source="QMHVdDGdQbJeDwEbL7cG-3" target="QMHVdDGdQbJeDwEbL7cG-9">
          <mxGeometry width="160" relative="1" as="geometry">
            <mxPoint x="405" y="270" as="sourcePoint" />
            <mxPoint x="395" y="370" as="targetPoint" />
          </mxGeometry>
        </mxCell>
        <mxCell id="QMHVdDGdQbJeDwEbL7cG-9" value="Search for a service" style="rounded=1;whiteSpace=wrap;html=1;" vertex="1" parent="1">
          <mxGeometry x="355" y="340" width="80" height="40" as="geometry" />
        </mxCell>
        <mxCell id="QMHVdDGdQbJeDwEbL7cG-10" value="Select service" style="rounded=1;whiteSpace=wrap;html=1;" vertex="1" parent="1">
          <mxGeometry x="355" y="410" width="80" height="40" as="geometry" />
        </mxCell>
        <mxCell id="QMHVdDGdQbJeDwEbL7cG-11" value="" style="endArrow=open;startArrow=none;endFill=0;startFill=0;endSize=8;html=1;verticalAlign=bottom;labelBackgroundColor=none;strokeWidth=1;rounded=0;exitX=0.5;exitY=1;exitDx=0;exitDy=0;entryX=0.5;entryY=0;entryDx=0;entryDy=0;" edge="1" parent="1" source="QMHVdDGdQbJeDwEbL7cG-9" target="QMHVdDGdQbJeDwEbL7cG-10">
          <mxGeometry width="160" relative="1" as="geometry">
            <mxPoint x="405" y="270" as="sourcePoint" />
            <mxPoint x="405" y="310" as="targetPoint" />
          </mxGeometry>
        </mxCell>
        <mxCell id="QMHVdDGdQbJeDwEbL7cG-16" value="Book a service" style="rounded=1;whiteSpace=wrap;html=1;" vertex="1" parent="1">
          <mxGeometry x="355" y="480" width="80" height="40" as="geometry" />
        </mxCell>
        <mxCell id="QMHVdDGdQbJeDwEbL7cG-17" value="" style="endArrow=open;startArrow=none;endFill=0;startFill=0;endSize=8;html=1;verticalAlign=bottom;labelBackgroundColor=none;strokeWidth=1;rounded=0;exitX=0.5;exitY=1;exitDx=0;exitDy=0;entryX=0.5;entryY=0;entryDx=0;entryDy=0;" edge="1" parent="1" source="QMHVdDGdQbJeDwEbL7cG-10" target="QMHVdDGdQbJeDwEbL7cG-16">
          <mxGeometry width="160" relative="1" as="geometry">
            <mxPoint x="405" y="420" as="sourcePoint" />
            <mxPoint x="405" y="450" as="targetPoint" />
          </mxGeometry>
        </mxCell>
        <mxCell id="QMHVdDGdQbJeDwEbL7cG-18" value="" style="rhombus;whiteSpace=wrap;html=1;" vertex="1" parent="1">
          <mxGeometry x="380" y="540" width="30" height="30" as="geometry" />
        </mxCell>
        <mxCell id="QMHVdDGdQbJeDwEbL7cG-19" value="" style="endArrow=open;startArrow=none;endFill=0;startFill=0;endSize=8;html=1;verticalAlign=bottom;labelBackgroundColor=none;strokeWidth=1;rounded=0;exitX=0.5;exitY=1;exitDx=0;exitDy=0;entryX=0.5;entryY=0;entryDx=0;entryDy=0;" edge="1" parent="1" source="QMHVdDGdQbJeDwEbL7cG-16" target="QMHVdDGdQbJeDwEbL7cG-18">
          <mxGeometry width="160" relative="1" as="geometry">
            <mxPoint x="405" y="490" as="sourcePoint" />
            <mxPoint x="405" y="520" as="targetPoint" />
          </mxGeometry>
        </mxCell>
        <mxCell id="QMHVdDGdQbJeDwEbL7cG-20" value="Continue to payment" style="rounded=1;whiteSpace=wrap;html=1;" vertex="1" parent="1">
          <mxGeometry x="355" y="600" width="80" height="40" as="geometry" />
        </mxCell>
        <mxCell id="QMHVdDGdQbJeDwEbL7cG-21" value="" style="endArrow=open;startArrow=none;endFill=0;startFill=0;endSize=8;html=1;verticalAlign=bottom;labelBackgroundColor=none;strokeWidth=1;rounded=0;exitX=0.5;exitY=1;exitDx=0;exitDy=0;entryX=0.5;entryY=0;entryDx=0;entryDy=0;" edge="1" parent="1" source="QMHVdDGdQbJeDwEbL7cG-18" target="QMHVdDGdQbJeDwEbL7cG-20">
          <mxGeometry width="160" relative="1" as="geometry">
            <mxPoint x="405" y="560" as="sourcePoint" />
            <mxPoint x="405" y="590" as="targetPoint" />
          </mxGeometry>
        </mxCell>
        <mxCell id="QMHVdDGdQbJeDwEbL7cG-23" value="[available]" style="text;html=1;align=center;verticalAlign=middle;whiteSpace=wrap;rounded=0;" vertex="1" parent="1">
          <mxGeometry x="425" y="580" width="5" height="10" as="geometry" />
        </mxCell>
        <mxCell id="QMHVdDGdQbJeDwEbL7cG-24" value="" style="endArrow=open;startArrow=none;endFill=0;startFill=0;endSize=8;html=1;verticalAlign=bottom;labelBackgroundColor=none;strokeWidth=1;rounded=0;exitX=0;exitY=0.5;exitDx=0;exitDy=0;entryX=0;entryY=0.5;entryDx=0;entryDy=0;" edge="1" parent="1" source="QMHVdDGdQbJeDwEbL7cG-18" target="QMHVdDGdQbJeDwEbL7cG-10">
          <mxGeometry width="160" relative="1" as="geometry">
            <mxPoint x="405" y="560" as="sourcePoint" />
            <mxPoint x="290" y="550" as="targetPoint" />
            <Array as="points">
              <mxPoint x="320" y="555" />
              <mxPoint x="320" y="430" />
            </Array>
          </mxGeometry>
        </mxCell>
        <mxCell id="QMHVdDGdQbJeDwEbL7cG-25" value="[not available]" style="text;html=1;align=center;verticalAlign=middle;whiteSpace=wrap;rounded=0;" vertex="1" parent="1">
          <mxGeometry x="240" y="480" width="80" as="geometry" />
        </mxCell>
        <mxCell id="QMHVdDGdQbJeDwEbL7cG-26" value="Receive confirmation" style="rounded=1;whiteSpace=wrap;html=1;" vertex="1" parent="1">
          <mxGeometry x="355" y="670" width="80" height="40" as="geometry" />
        </mxCell>
        <mxCell id="QMHVdDGdQbJeDwEbL7cG-27" value="" style="endArrow=open;startArrow=none;endFill=0;startFill=0;endSize=8;html=1;verticalAlign=bottom;labelBackgroundColor=none;strokeWidth=1;rounded=0;exitX=0.5;exitY=1;exitDx=0;exitDy=0;entryX=0.5;entryY=0;entryDx=0;entryDy=0;" edge="1" parent="1" source="QMHVdDGdQbJeDwEbL7cG-20" target="QMHVdDGdQbJeDwEbL7cG-26">
          <mxGeometry width="160" relative="1" as="geometry">
            <mxPoint x="405" y="490" as="sourcePoint" />
            <mxPoint x="405" y="520" as="targetPoint" />
          </mxGeometry>
        </mxCell>
        <mxCell id="QMHVdDGdQbJeDwEbL7cG-28" value="" style="ellipse;html=1;shape=endState;fillColor=strokeColor;" vertex="1" parent="1">
          <mxGeometry x="380" y="740" width="30" height="30" as="geometry" />
        </mxCell>
        <mxCell id="QMHVdDGdQbJeDwEbL7cG-29" value="" style="endArrow=open;startArrow=none;endFill=0;startFill=0;endSize=8;html=1;verticalAlign=bottom;labelBackgroundColor=none;strokeWidth=1;rounded=0;exitX=0.5;exitY=1;exitDx=0;exitDy=0;entryX=0.5;entryY=0;entryDx=0;entryDy=0;" edge="1" parent="1" source="QMHVdDGdQbJeDwEbL7cG-26" target="QMHVdDGdQbJeDwEbL7cG-28">
          <mxGeometry width="160" relative="1" as="geometry">
            <mxPoint x="405" y="690" as="sourcePoint" />
            <mxPoint x="405" y="720" as="targetPoint" />
          </mxGeometry>
        </mxCell>
      </root>
    </mxGraphModel>
  </diagram>
</mxfile>
